<svg width="0" height="0" class="hidden">
  <symbol id="menu-icon-svg" version="1.1" xml:space="preserve" xmlns="http://www.w3.org/2000/svg" xmlns:xlink="http://www.w3.org/1999/xlink" viewBox="0 0 32 32">
    <path d="M4,10h24c1.104,0,2-0.896,2-2s-0.896-2-2-2H4C2.896,6,2,6.896,2,8S2.896,10,4,10z M28,14H4c-1.104,0-2,0.896-2,2  s0.896,2,2,2h24c1.104,0,2-0.896,2-2S29.104,14,28,14z M28,22H4c-1.104,0-2,0.896-2,2s0.896,2,2,2h24c1.104,0,2-0.896,2-2  S29.104,22,28,22z"></path>
  </symbol>
  <symbol version="1.1" xml:space="preserve" xmlns="http://www.w3.org/2000/svg" xmlns:xlink="http://www.w3.org/1999/xlink" viewBox="0 0 96 96" id="phone-icon-svg">
    <g id="banana"></g>
    <g id="Layer_12"></g>
    <g id="grape"></g>
    <g id="assasin"></g>
    <g id="gold"></g>
    <g id="mage_ass"></g>
    <g id="fighter"></g>
    <g id="SUPPORT"></g>
    <g id="marksman"></g>
    <g id="JUNGLE"></g>
    <g id="TANK"></g>
    <g id="creditcard"></g>
    <g id="CAKE"></g>
    <g id="TOPI"></g>
    <g id="SPATU"></g>
    <g id="SETTING"></g>
    <g id="CART"></g>
    <g id="k3"></g>
    <g id="computer"></g>
    <g id="phone"></g>
    <g id="location"></g>
    <g id="koper">
      <g id="Layer_29"></g>
      <path d="M69,70.7c-1.2,1.1-2.6,1.8-4.2,2.1c0,0,0,0,0,0c0,0,0,0,0,0c-0.3,0.1-0.7,0.1-1,0.1c-0.1,0-0.3,0-0.6,0c0,0,0,0,0,0l-0.5,0   c-9.4,0.3-18.5-3.1-25.6-9.8c-7.9-7.4-12.6-18.1-13-29.3c0-0.3,0-0.6,0-0.8c0,0,0,0,0,0c0,0,0,0,0,0c0-0.1,0-0.2,0-0.3   c0-0.3,0-0.6,0-1c0,0,0-0.1,0-0.1c0.3-4.8,3.9-8.5,8.3-8.6c0.6,0,1.2,0,1.7,0.1c0.8,0.2,1.6,0.5,2.4,0.9L39,38.6   c-1.3,1.6-3.1,2.7-5,3c0,0,0,0-0.1,0c0,0,0,0-0.1,0c0,0-0.1,0-0.1,0.1c-0.1,0-0.1,0.1-0.2,0.1c-0.1,0-0.1,0.1-0.1,0.1   c0,0-0.1,0.1-0.1,0.1c0,0.1-0.1,0.1-0.1,0.2c0,0.1,0,0.1-0.1,0.2c0,0.1,0,0.1,0,0.2c0,0,0,0.1,0,0.1c0,0,0,0,0,0.1c0,0,0,0,0,0.1   C36.4,53,44,60.7,53.6,63.5c0,0,0.1,0,0.1,0c0,0,0,0,0.1,0c0,0,0.1,0,0.1,0c0,0,0,0,0,0c0,0,0,0,0,0c0,0,0,0,0,0c0,0,0,0,0,0   c0.1,0,0.2,0,0.3-0.1c0,0,0.1,0,0.1-0.1c0.1,0,0.1-0.1,0.2-0.1c0,0,0.1-0.1,0.1-0.1c0-0.1,0.1-0.1,0.1-0.2c0,0,0-0.1,0.1-0.1   c0,0,0-0.1,0-0.1c0,0,0-0.1,0-0.1c0,0,0-0.1,0-0.1c0.2-2.1,1.1-4.1,2.5-5.7l13.5,1.9c0.4,0.7,0.7,1.5,0.9,2.3c0,0,0,0.1,0,0.1   c0.1,0.4,0.2,0.9,0.2,1.3c0,0.2,0,0.4,0,0.6C72.1,66.2,70.9,68.9,69,70.7z"></path>
    </g>
    <g id="guide"></g>
    <g id="MAGICAL"></g>
    <g id="phisical"></g>
    <g id="mango"></g>
    <g id="orange"></g>
  </symbol>
  <symbol enable-background="new 0 0 48 48" id="arrow-icon-svg" version="1.1" xml:space="preserve" xmlns="http://www.w3.org/2000/svg" xmlns:xlink="http://www.w3.org/1999/xlink" viewBox="0 0 48 48">
    <polygon fill="#241F20" points="0,12.438 48,12.438 24,35.562 "></polygon>
  </symbol>
  <symbol id="calendar-icon-svg" xmlns="http://www.w3.org/2000/svg" viewBox="0 0 32 32">
    <title></title>
    <path d="M20.69,24H3.53a1,1,0,0,1-1-1V11.34H26.76v7.05a0.5,0.5,0,0,0,1,0V8a2,2,0,0,0-2-2H24.07V4.5a0.5,0.5,0,0,0-1,0V5.93h-5V4.62a0.5,0.5,0,1,0-1,0V5.93h-5V4.62a0.5,0.5,0,1,0-1,0V5.93h-5V4.62a0.5,0.5,0,1,0-1,0V5.93H3.53a2,2,0,0,0-2,2v15a2,2,0,0,0,2,2H20.69A0.5,0.5,0,0,0,20.69,24ZM3.53,6.93H5.18V8.24a0.5,0.5,0,0,0,1,0V6.93h5V8.24a0.5,0.5,0,0,0,1,0V6.93h5V8.24a0.5,0.5,0,0,0,1,0V6.93h5V8.12a0.5,0.5,0,1,0,1,0V6.93h1.65a1,1,0,0,1,1,1v2.38H2.5V8A1,1,0,0,1,3.53,6.93Z"></path>
    <rect height="1.92" width="1.92" x="9.21" y="13.03"></rect>
    <rect height="1.92" width="1.92" x="13.71" y="13.03"></rect>
    <rect height="1.92" width="1.92" x="18.21" y="13.02"></rect>
    <rect height="1.92" width="1.92" x="4.71" y="16.7"></rect>
    <rect height="1.92" width="1.92" x="9.21" y="16.7"></rect>
    <rect height="1.92" width="1.92" x="13.71" y="16.7"></rect>
    <rect height="1.92" width="1.92" x="4.71" y="20.41"></rect>
    <rect height="1.92" width="1.92" x="9.21" y="20.41"></rect>
    <rect height="1.92" width="1.92" x="13.71" y="20.39"></rect>
    <rect height="1.92" width="1.92" x="18.21" y="20.39"></rect>
    <rect height="1.92" width="1.92" x="18.21" y="16.69"></rect>
    <rect height="1.92" width="1.92" x="22.63" y="13"></rect>
    <rect height="1.92" width="1.92" x="22.63" y="16.67"></rect>
    <path d="M26.32,19.65a4.18,4.18,0,1,0,4.17,4.17A4.18,4.18,0,0,0,26.32,19.65Zm0,7.35a3.18,3.18,0,1,1,3.17-3.18A3.18,3.18,0,0,1,26.32,27Z"></path>
    <path d="M27.5,22.42L25.77,24.2l-0.67-.54a0.5,0.5,0,1,0-.63.77l1,0.83a0.5,0.5,0,0,0,.67,0l2.05-2.11A0.5,0.5,0,0,0,27.5,22.42Z"></path>
  </symbol>
  <symbol id="github-icon-svg" xmlns="http://www.w3.org/2000/svg" viewBox="0 0 35 35">
    <path d="M23.56,17.5a1.26,1.26,0,0,1-.74-.24L15.07,11.6a1.25,1.25,0,0,1,1.47-2l7.75,5.66A1.26,1.26,0,0,1,24.57,17,1.27,1.27,0,0,1,23.56,17.5Z"></path>
    <path d="M8.57,6.56a1.26,1.26,0,0,1-.74-.24L2.6,2.51A1.25,1.25,0,0,1,2.33.76,1.24,1.24,0,0,1,4.07.49L9.3,4.3a1.26,1.26,0,0,1,.28,1.75A1.27,1.27,0,0,1,8.57,6.56Z"></path>
    <path d="M12.08,25.79a1.25,1.25,0,0,1-1.25-1.25v-12a1.25,1.25,0,0,1,2.5,0v12A1.25,1.25,0,0,1,12.08,25.79Z"></path>
    <path d="M12.07,13.83A5.73,5.73,0,1,1,17.81,8.1,5.74,5.74,0,0,1,12.07,13.83Zm0-9A3.23,3.23,0,1,0,15.31,8.1,3.23,3.23,0,0,0,12.07,4.87Z"></path>
    <path d="M12.07,34.75A5.73,5.73,0,1,1,17.81,29,5.74,5.74,0,0,1,12.07,34.75Zm0-9A3.23,3.23,0,1,0,15.31,29,3.23,3.23,0,0,0,12.07,25.79Z"></path>
    <path d="M27.18,24.62a5.73,5.73,0,1,1,5.73-5.73A5.74,5.74,0,0,1,27.18,24.62Zm0-9a3.23,3.23,0,1,0,3.23,3.23A3.23,3.23,0,0,0,27.18,15.66Z"></path>
  </symbol>
  <symbol id="info-icon-svg" xmlns="http://www.w3.org/2000/svg" viewBox="0 0 38 38">
    <path d="M19,37.44A18.44,18.44,0,1,1,37.44,19,18.461,18.461,0,0,1,19,37.44ZM19,3.06A15.94,15.94,0,1,0,34.94,19,15.957,15.957,0,0,0,19,3.06Z"></path>
    <circle cx="19" cy="11.242" r="1.878"></circle>
    <path d="M20.834,26.579a1.983,1.983,0,0,1-1.034-.822l.871-7.631c0-.018,0-.036,0-.054s.008-.029.01-.045a2.039,2.039,0,0,0-1.345-2.157,2.258,2.258,0,0,0-.451-.1,2.03,2.03,0,0,0-2.034,1.066,1.627,1.627,0,0,1,.313.076,2.034,2.034,0,0,1,1.034.821l-.883,7.731a2.036,2.036,0,0,0,1.335,2.155c.009.011.01,0,.01,0a2.258,2.258,0,0,0,.451.1,2.03,2.03,0,0,0,2.034-1.066A1.627,1.627,0,0,1,20.834,26.579Z"></path>
  </symbol>
  <symbol xmlns="http://www.w3.org/2000/svg" shape-rendering="geometricPrecision" text-rendering="geometricPrecision" image-rendering="optimizeQuality" fill-rule="evenodd" clip-rule="evenodd" viewBox="0 0 333333 333333" id="instagram-svg">
    <defs>
      <linearGradient id="a" gradientUnits="userSpaceOnUse" x1="126963" y1="323675" x2="206370" y2="9655.51">
        <stop offset="0" stop-color="#f58529"></stop>
        <stop offset=".129" stop-color="#feda77"></stop>
        <stop offset=".431" stop-color="#dd2a7b"></stop>
        <stop offset=".741" stop-color="#8134af"></stop>
        <stop offset="1" stop-color="#515bd4"></stop>
      </linearGradient>
    </defs>
    <path d="M129816 80249h73706c27678 0 50313 22355 50313 49665v73506c0 27317-22635 49663-50313 49663h-73706c-27680 0-50317-22348-50317-49663v-73508c0-27308 22638-49663 50317-49663zM166667 0c46024 0 87691 18656 117851 48816 30159 30160 48816 71827 48816 117851 0 46020-18656 87689-48816 117849-30161 30159-71830 48816-117851 48816-46020 0-87689-18657-117851-48816C18657 254356 0 212687 0 166667S18656 78978 48816 48816C78977 18657 120646 0 166667 0zm104924 61742c-26849-26849-63948-43459-104924-43459-40974 0-78074 16610-104924 43459-26849 26850-43459 63950-43459 104924 0 40976 16610 78074 43459 104923 26850 26849 63950 43459 104924 43459s78074-16610 104924-43459c26849-26849 43459-63947 43459-104923s-16610-78076-43459-104924zm-105394 58260c26896 0 48723 21826 48723 48724 0 26900-21827 48723-48723 48723-26904 0-48727-21823-48727-48723 0-26898 21823-48724 48727-48724zm0 16457c17811 0 32267 14453 32267 32267 0 17815-14456 32271-32267 32271-17817 0-32270-14456-32270-32271 0-17814 14453-32267 32270-32267zm47139-23209c4368 0 7911 3542 7911 7908 0 4369-3543 7911-7911 7911-4367 0-7908-3542-7908-7911 0-4367 3542-7908 7908-7908zm-77498-18883h61667c23156 0 42094 18843 42094 41872v61975c0 23027-18937 41867-42094 41867l-61667 2c-23154 0-42095-18841-42095-41867v-61978c0-23027 18941-41870 42095-41870z" fill="url(#a)"></path>
  </symbol>
</svg>